<svg version="1.1" id="Layer_1" xmlns="http://www.w3.org/2000/svg" xmlns:xlink="http://www.w3.org/1999/xlink" x="0px" y="0px"
	 width="100%" viewBox="0 0 1536 1024" enable-background="new 0 0 1536 1024" xml:space="preserve">
<path fill="none" opacity="1.000000" stroke="#000000" stroke-linecap="round" stroke-linejoin="round" stroke-width="4.000000"
	d="
M65.500000,883.500000 
	C532.166687,883.500000 998.833313,883.500000 1465.500000,883.500000 
"/>
<path fill="none" opacity="1.000000" stroke="#000000" stroke-linecap="round" stroke-linejoin="round" stroke-width="4.000000"
	d="
M1296.500000,779.500000 
	C1178.166626,779.500000 1059.833374,779.500000 941.500000,779.500000 
"/>
<path fill="none" opacity="1.000000" stroke="#000000" stroke-linecap="round" stroke-linejoin="round" stroke-width="4.000000"
	d="
M707.000000,760.500000 
	C673.333313,760.500000 639.666687,760.513306 606.000000,760.488770 
	C599.289551,760.483826 592.624939,761.895630 586.004150,761.774048 
	C579.984558,761.663513 573.999878,762.100037 568.000000,761.998779 
	C500.335754,760.857056 432.666351,761.802917 364.999969,761.510254 
	C349.000244,761.441040 332.999695,761.437439 317.000061,761.515320 
	C295.499786,761.620056 273.992615,762.243408 252.502579,761.856934 
	C237.989075,761.596008 223.490295,762.663696 209.003342,761.933777 
	C198.997330,761.429688 189.001144,761.558228 178.999939,761.513672 
	C166.333511,761.457214 153.666245,761.435547 141.000122,761.519531 
	C129.999512,761.592468 119.000000,761.833313 108.000000,762.000000 
"/>
<path fill="none" opacity="1.000000" stroke="#000000" stroke-linecap="round" stroke-linejoin="round" stroke-width="4.000000"
	d="
M832.500000,760.500000 
	C865.666687,760.500000 898.842224,759.999695 931.998352,760.590820 
	C1045.663574,762.617126 1159.334106,760.880005 1272.999878,761.518311 
	C1277.000732,761.540771 1280.998657,761.918884 1285.000366,761.978882 
	C1290.261230,762.057861 1290.262207,761.992859 1291.073853,756.500000 
	C1292.996460,756.500000 1295.003540,756.500000 1297.500000,756.500000 
	C1297.500000,751.011108 1297.500000,745.988892 1297.500000,740.705994 
	C1305.991943,740.448792 1313.942871,740.095093 1322.005005,740.315857 
	C1342.323242,740.872131 1362.666626,740.521057 1383.000000,740.483154 
	C1387.326782,740.475037 1389.926270,735.244934 1388.624634,730.962097 
	C1387.284424,726.552795 1384.924438,725.342896 1380.498657,725.402283 
	C1362.835205,725.639160 1345.166626,725.500000 1327.647705,725.500000 
	C1325.908203,729.213074 1325.197632,733.426697 1320.547729,735.130188 
	C1319.235352,735.610962 1318.500000,737.666687 1317.500000,739.000000 
"/>
<path fill="none" opacity="1.000000" stroke="#000000" stroke-linecap="round" stroke-linejoin="round" stroke-width="5.000000"
	d="
M584.000000,779.500000 
	C467.333344,779.666626 350.666656,779.833313 234.000000,780.000000 
"/>
<path fill="none" opacity="1.000000" stroke="#000000" stroke-linecap="round" stroke-linejoin="round" stroke-width="4.000000"
	d="
M831.500000,488.000000 
	C831.500000,570.333313 831.500000,652.666687 831.500000,735.000000 
	C831.500000,782.333313 831.503601,829.666687 831.486267,877.000000 
	C831.485596,878.838684 831.843384,880.728210 831.000000,882.500000 
"/>
<path fill="none" opacity="1.000000" stroke="#000000" stroke-linecap="round" stroke-linejoin="round" stroke-width="5.000000"
	d="
M707.500000,488.000000 
	C708.765320,490.023285 708.582397,492.293579 708.479675,494.499054 
	C707.944092,506.001068 708.017761,517.487915 708.390930,529.003540 
	C708.736145,539.653625 708.024170,550.333496 708.036255,560.999939 
	C708.051208,574.166809 708.438477,587.333008 708.477600,600.500061 
	C708.553955,626.166504 708.500000,651.833313 708.500000,677.500000 
	C708.500000,693.833313 708.850037,710.176575 708.389038,726.496887 
	C708.021606,739.502747 708.012695,752.498474 708.006592,765.500000 
	C707.988281,804.500000 708.000000,843.500000 708.000000,882.500000 
"/>
<path fill="none" opacity="1.000000" stroke="#000000" stroke-linecap="round" stroke-linejoin="round" stroke-width="4.000000"
	d="
M915.000000,882.500000 
	C915.000000,854.166687 915.000000,825.833313 915.000000,797.500000 
	C914.083008,796.292786 912.760193,796.500916 911.500000,796.500793 
	C900.666687,796.499390 889.832764,796.559448 879.000366,796.460876 
	C876.059631,796.434143 874.439697,797.063660 874.451111,800.500183 
	C874.539734,827.166565 874.496399,853.833313 874.520996,880.500000 
	C874.521606,881.166809 874.833313,881.833313 875.000000,882.500000 
"/>
<path fill="none" opacity="1.000000" stroke="#000000" stroke-linecap="round" stroke-linejoin="round" stroke-width="4.000000"
	d="
M649.500000,882.000000 
	C649.500000,853.665710 649.500000,825.331360 649.500000,796.750000 
	C636.166687,796.750000 623.333313,796.750000 609.860657,796.750000 
	C610.455872,815.500000 610.034790,833.993286 610.204041,852.502686 
	C610.295105,862.464050 611.698547,872.525513 610.000000,882.500000 
"/>
<path fill="none" opacity="1.000000" stroke="#000000" stroke-linecap="round" stroke-linejoin="round" stroke-width="4.000000"
	d="
M693.000000,882.500000 
	C693.166687,881.333313 693.477661,880.166809 693.478821,879.000000 
	C693.506287,852.333313 693.502319,825.666687 693.486877,799.000000 
	C693.486450,798.317749 693.830566,797.500671 692.569214,796.750000 
	C684.666687,796.750000 676.333313,796.750000 667.500000,796.750000 
	C667.500000,798.655945 667.500000,800.327942 667.500000,802.000000 
	C667.500000,827.000000 667.506775,852.000000 667.485962,877.000000 
	C667.484436,878.838684 667.843384,880.728210 667.000000,882.500000 
"/>
<path fill="none" opacity="1.000000" stroke="#000000" stroke-linecap="round" stroke-linejoin="round" stroke-width="4.000000"
	d="
M1060.500000,867.500000 
	C1060.500000,845.333313 1060.500000,823.166687 1060.500000,800.750000 
	C1050.666626,800.750000 1040.833374,800.750000 1030.750000,800.750000 
	C1030.750000,823.333313 1030.750000,845.666687 1030.750000,868.559021 
	C1040.833374,868.163940 1050.666626,869.129395 1060.500000,868.000000 
"/>
<path fill="none" opacity="1.000000" stroke="#000000" stroke-linecap="round" stroke-linejoin="round" stroke-width="4.000000"
	d="
M707.000000,740.500000 
	C666.415955,740.500000 625.831970,740.500000 585.125000,740.500000 
	C585.125000,745.830505 585.125000,750.665222 585.125000,755.373962 
	C583.000000,757.555603 580.158447,755.683777 577.500000,757.190979 
	C577.500000,758.292114 577.500000,759.646057 577.500000,761.000000 
"/>
<path fill="none" opacity="1.000000" stroke="#000000" stroke-linecap="round" stroke-linejoin="round" stroke-width="4.000000"
	d="
M949.000000,761.000000 
	C948.676331,759.225464 950.992981,758.330994 950.496826,756.498901 
	C943.511597,754.094788 943.542053,754.094543 943.470947,745.500244 
	C943.458557,744.004089 943.990540,742.408447 942.795227,740.500000 
	C906.168152,740.500000 869.334106,740.500000 832.500000,740.500000 
"/>
<path fill="none" opacity="1.000000" stroke="#000000" stroke-linecap="round" stroke-linejoin="round" stroke-width="4.000000"
	d="
M1390.500000,734.500000 
	C1400.666626,734.500000 1410.837769,734.672241 1420.997803,734.413757 
	C1424.972290,734.312744 1426.166870,735.796387 1426.046265,739.501526 
	C1425.867310,745.000488 1426.000000,750.509705 1426.425049,756.019714 
	C1427.858765,757.014343 1429.003540,756.308838 1430.001953,756.489380 
	C1431.163086,756.699402 1431.522705,757.380554 1431.522705,758.500000 
	C1431.522705,759.619446 1431.165771,760.494751 1430.000732,760.468018 
	C1427.269775,760.405518 1425.021362,762.251892 1421.966797,761.675781 
	C1418.104248,760.947449 1414.000000,761.500000 1410.000000,761.500000 
	C1374.333374,761.500000 1338.666626,761.508057 1303.000000,761.488708 
	C1298.996582,761.486511 1294.959351,762.143188 1291.000000,761.000000 
"/>
<path fill="none" opacity="1.000000" stroke="#000000" stroke-linecap="round" stroke-linejoin="round" stroke-width="4.000000"
	d="
M706.500000,464.500000 
	C708.682434,464.264587 710.864868,464.029175 713.500000,463.744934 
	C713.500000,458.343231 713.500000,453.156006 713.500000,447.500000 
	C751.165161,447.500000 788.332581,447.500000 825.436279,447.500000 
	C826.206970,449.454987 825.939270,451.489319 826.010925,453.499603 
	C826.083069,455.523773 826.489136,457.099518 828.384033,458.642426 
	C830.584778,460.434448 831.489563,463.464233 831.498413,466.500000 
	C831.506165,469.166626 831.500000,471.833344 831.500000,474.500000 
	C831.500000,481.561188 831.500000,481.561188 838.266541,484.100006 
	C837.023987,488.810028 833.160645,486.859039 830.501038,486.841919 
	C828.723877,486.830505 826.838684,486.514740 825.000000,486.513824 
	C788.333313,486.495331 751.666687,486.484833 715.000061,486.535492 
	C712.658203,486.538727 710.338928,486.279297 707.900757,487.250916 
	C706.893494,487.652344 703.033691,488.221619 702.965210,484.062988 
	C709.180298,484.007568 708.003723,479.429169 708.000549,475.500000 
	C707.997681,472.000000 708.000000,468.500000 708.000000,465.000000 
"/>
<path fill="none" opacity="1.000000" stroke="#000000" stroke-linecap="round" stroke-linejoin="round" stroke-width="4.000000"
	d="
M1391.000000,882.500000 
	C1391.801270,880.896790 1391.487427,879.174438 1391.488525,877.500000 
	C1391.504883,851.166687 1391.457031,824.833191 1391.544312,798.500122 
	C1391.557983,794.359802 1392.584961,792.925354 1386.000732,793.043091 
	C1376.997681,793.203979 1367.895996,794.658447 1359.028442,793.728760 
	C1349.634888,792.744019 1340.326904,793.530212 1330.998535,793.026306 
	C1329.171753,792.927734 1327.326660,793.169250 1325.500000,793.253418 
	C1325.500000,821.333313 1325.506104,849.166687 1325.485962,877.000000 
	C1325.484741,878.838684 1325.843384,880.728210 1325.000000,882.500000 
"/>
<path fill="none" opacity="1.000000" stroke="#000000" stroke-linecap="round" stroke-linejoin="round" stroke-width="4.000000"
	d="
M203.000000,882.500000 
	C203.801270,880.896790 203.487427,879.174438 203.488480,877.500000 
	C203.504898,851.166687 203.457123,824.833191 203.544388,798.500122 
	C203.558105,794.359619 204.587845,793.016846 198.000015,793.020081 
	C188.324661,793.024780 178.572693,794.024536 169.016983,793.609131 
	C159.808899,793.208862 150.656311,794.383362 141.495697,793.547180 
	C140.371490,793.444580 139.044144,792.975708 137.500000,794.417725 
	C137.500000,795.655945 137.500000,797.327942 137.500000,799.000000 
	C137.500000,819.333313 137.196106,839.673584 137.658508,859.996399 
	C137.829163,867.496826 137.398056,875.009644 138.000000,882.500000 
"/>
<path fill="none" opacity="1.000000" stroke="#000000" stroke-linecap="round" stroke-linejoin="round" stroke-width="4.000000"
	d="
M1423.500000,762.500000 
	C1423.500000,800.666687 1423.495605,838.833313 1423.513916,877.000000 
	C1423.514771,878.838684 1423.156616,880.728210 1424.000000,882.500000 
"/>
<path fill="none" opacity="1.000000" stroke="#000000" stroke-linecap="round" stroke-linejoin="round" stroke-width="4.000000"
	d="
M236.500000,744.500000 
	C234.639267,743.331055 232.561996,743.494629 230.500000,743.495056 
	C196.666672,743.502075 162.833328,743.500000 129.000000,743.500000 
	C122.000000,743.500000 114.999992,743.495544 108.000000,743.502991 
	C106.109962,743.505005 104.154587,743.183594 102.245430,744.897644 
	C109.602730,749.303833 106.387154,756.854187 106.708099,763.015198 
	C107.182549,772.123047 106.156830,781.324463 106.937271,790.505310 
	C107.175186,793.304260 106.509697,796.167542 106.524788,798.999878 
	C106.647324,822.000122 106.829880,845.000000 107.002800,868.000000 
	C107.039139,872.833435 105.658188,877.666687 107.000000,882.500000 
"/>
<path fill="none" opacity="1.000000" stroke="#000000" stroke-linecap="round" stroke-linejoin="round" stroke-width="4.000000"
	d="
M216.500000,742.500000 
	C214.747238,736.465088 209.698029,732.293823 207.464951,726.513550 
	C206.857635,724.941406 205.231796,725.514526 203.999985,725.513550 
	C181.333328,725.495056 158.666672,725.495056 136.000015,725.513550 
	C134.768204,725.514526 133.208527,724.959778 132.523163,726.510254 
	C129.994217,732.231079 124.560028,736.212708 123.000000,742.500000 
"/>
<path fill="none" opacity="1.000000" stroke="#000000" stroke-linecap="round" stroke-linejoin="round" stroke-width="4.000000"
	d="
M832.500000,799.000000 
	C839.170349,799.000000 845.840698,799.000000 852.500000,799.000000 
	C852.500000,825.333313 852.493408,851.166687 852.514038,877.000000 
	C852.515503,878.838684 852.156616,880.728210 853.000000,882.500000 
"/>
<path fill="none" opacity="1.000000" stroke="#000000" stroke-linecap="round" stroke-linejoin="round" stroke-width="5.000000"
	d="
M585.000000,763.000000 
	C585.000000,798.166687 584.974182,833.333374 585.030945,868.499939 
	C585.038513,873.166992 583.562622,877.833313 585.000000,882.500000 
"/>
<path fill="none" opacity="1.000000" stroke="#000000" stroke-linecap="round" stroke-linejoin="round" stroke-width="4.000000"
	d="
M941.000000,762.000000 
	C939.681519,769.641602 940.633484,777.339783 940.583069,785.000549 
	C940.381592,815.665894 940.505554,846.333313 940.486084,877.000000 
	C940.484924,878.838684 940.843384,880.728210 940.000000,882.500000 
"/>
<path fill="none" opacity="1.000000" stroke="#000000" stroke-linecap="round" stroke-linejoin="round" stroke-width="4.000000"
	d="
M1297.500000,762.500000 
	C1297.500000,802.500000 1297.500000,842.500000 1297.500000,882.500000 
"/>
<path fill="none" opacity="1.000000" stroke="#000000" stroke-linecap="round" stroke-linejoin="round" stroke-width="4.000000"
	d="
M238.500000,744.500000 
	C233.929077,746.042908 232.489059,749.726685 232.553421,753.999207 
	C232.681473,762.499084 231.948166,771.010742 232.945206,779.506409 
	C233.155167,781.295532 232.523102,783.166565 232.521347,785.000000 
	C232.491486,816.000000 232.493027,847.000000 232.521240,878.000000 
	C232.522598,879.500122 232.833344,881.000000 233.000000,882.500000 
"/>
<path fill="none" opacity="1.000000" stroke="#000000" stroke-linecap="round" stroke-linejoin="round" stroke-width="4.000000"
	d="
M773.500000,151.500000 
	C779.506348,153.066467 785.007935,155.380341 789.607483,159.890411 
	C791.651001,161.894180 794.710571,162.858322 798.006226,162.571686 
	C801.935608,162.229965 805.956787,162.165176 809.794983,164.742645 
	C806.107605,171.500000 808.535278,178.500000 810.185852,186.062943 
	C804.333313,184.293869 799.245483,188.072952 793.952087,185.602646 
	C792.360168,184.859741 790.403992,184.728210 789.012573,183.485916 
	C784.298645,179.277130 778.708496,177.368164 772.500000,177.000000 
"/>
<path fill="none" opacity="1.000000" stroke="#000000" stroke-linecap="round" stroke-linejoin="round" stroke-width="4.000000"
	d="
M169.500000,794.500000 
	C169.500000,822.000000 169.506226,849.500000 169.486053,877.000000 
	C169.484711,878.838684 169.843353,880.728210 169.000000,882.500000 
"/>
<path fill="none" opacity="1.000000" stroke="#000000" stroke-linecap="round" stroke-linejoin="round" stroke-width="4.000000"
	d="
M1359.500000,794.500000 
	C1359.500000,822.000000 1359.506226,849.500000 1359.485962,877.000000 
	C1359.484619,878.838684 1359.843384,880.728210 1359.000000,882.500000 
"/>
<path fill="none" opacity="1.000000" stroke="#000000" stroke-linecap="round" stroke-linejoin="round" stroke-width="4.000000"
	d="
M815.000061,446.500000 
	C815.166687,445.333344 815.476868,444.166901 815.478638,442.999969 
	C815.508362,423.166656 815.412109,403.332611 815.575256,383.500610 
	C815.607300,379.607971 814.392029,378.398865 810.499512,378.425110 
	C787.833862,378.578064 765.166687,378.500000 742.500000,378.500000 
	C738.166687,378.500000 733.819336,378.715790 729.504150,378.436157 
	C725.595886,378.182922 724.389343,379.607300 724.424500,383.500671 
	C724.592834,402.165833 724.500000,420.833344 724.500000,439.500000 
	C724.500000,441.833344 724.500000,444.166656 724.500000,446.500000 
"/>
<path fill="none" opacity="1.000000" stroke="#000000" stroke-linecap="round" stroke-linejoin="round" stroke-width="4.000000"
	d="
M804.500000,377.500000 
	C804.500000,361.500000 804.815735,345.489899 804.304382,329.506256 
	C804.154175,324.811127 807.546936,321.099884 806.507202,316.498383 
	C806.320129,315.670410 806.862061,314.694244 805.497559,313.500000 
	C782.000000,313.500000 758.000000,313.500000 732.842285,313.500000 
	C734.725647,316.986908 731.174194,320.800934 735.957520,323.088837 
	C737.294128,323.728180 736.461121,325.678619 736.465271,327.000122 
	C736.518005,343.833282 736.500000,360.666656 736.500000,377.500000 
"/>
<path fill="none" opacity="1.000000" stroke="#000000" stroke-linecap="round" stroke-linejoin="round" stroke-width="4.000000"
	d="
M791.500000,312.500000 
	C791.500000,300.000000 791.476013,287.499878 791.535217,275.000153 
	C791.541443,273.678284 790.748840,271.942963 792.035889,271.051788 
	C796.056519,268.267731 793.854980,264.437653 794.791504,260.500000 
	C778.333313,260.500000 762.666687,260.500000 746.005615,260.500000 
	C747.579102,264.154175 744.473389,267.807343 748.424011,270.607239 
	C748.974365,270.997284 748.500000,272.833344 748.500000,274.000000 
	C748.500000,286.833344 748.500000,299.666656 748.500000,312.500000 
"/>
<path fill="none" opacity="1.000000" stroke="#000000" stroke-linecap="round" stroke-linejoin="round" stroke-width="4.000000"
	d="
M772.500000,147.000000 
	C774.299622,150.270157 771.922974,153.294708 771.920410,156.499939 
	C771.901733,179.833389 771.666687,203.166672 771.500000,226.500000 
"/>
<path fill="none" opacity="1.000000" stroke="#000000" stroke-linecap="round" stroke-linejoin="round" stroke-width="4.000000"
	d="
M789.000000,259.500000 
	C788.833374,255.166672 788.966187,250.796463 788.438354,246.507584 
	C787.300232,237.259048 779.795044,232.782684 773.448608,227.562469 
	C772.042542,226.405869 769.943115,226.878311 768.528320,228.034622 
	C764.778320,231.099335 760.585510,233.882080 757.672424,237.633896 
	C755.047852,241.014221 752.704712,245.198517 753.532349,249.994415 
	C754.103394,253.303146 751.929504,256.238190 752.500000,259.500000 
"/>
<path fill="none" opacity="1.000000" stroke="#000000" stroke-linecap="round" stroke-linejoin="round" stroke-width="4.000000"
	d="
M255.000000,800.500000 
	C253.073608,800.786804 253.508667,802.281311 253.508026,803.500000 
	C253.496887,824.666687 253.497696,845.833313 253.520752,867.000000 
	C253.521118,867.333618 253.833038,867.666809 254.124283,868.250000 
	C264.000000,868.250000 274.000000,868.250000 284.250000,868.250000 
	C284.250000,845.666687 284.250000,823.333313 284.250000,800.500000 
	C274.505859,800.500000 265.002930,800.500000 255.500000,800.500000 
"/>
<path fill="none" opacity="1.000000" stroke="#000000" stroke-linecap="round" stroke-linejoin="round" stroke-width="4.000000"
	d="
M767.500000,539.000000 
	C750.827698,540.971619 739.894775,549.965332 735.032104,566.009705 
	C729.034363,585.799622 742.743774,606.874268 762.008423,610.454773 
	C782.343384,614.234192 797.897827,604.677124 804.526245,585.008850 
	C810.828674,566.307861 797.980652,545.522095 780.500305,540.498962 
	C776.413391,539.324524 772.232910,538.947937 768.000000,539.000000 
"/>
<path fill="none" opacity="1.000000" stroke="#000000" stroke-linecap="round" stroke-linejoin="round" stroke-width="4.000000"
	d="
M323.000000,800.500000 
	C321.073608,800.786804 321.508698,802.281311 321.508057,803.500000 
	C321.496918,824.666687 321.497711,845.833313 321.520752,867.000000 
	C321.521118,867.333557 321.833038,867.666809 322.124298,868.250000 
	C331.666656,868.250000 341.333344,868.250000 351.250000,868.250000 
	C351.250000,845.666687 351.250000,823.333313 351.250000,800.500000 
	C341.839386,800.500000 332.669708,800.500000 323.500000,800.500000 
"/>
<path fill="none" opacity="1.000000" stroke="#000000" stroke-linecap="round" stroke-linejoin="round" stroke-width="4.000000"
	d="
M391.000000,800.500000 
	C389.073608,800.786804 389.508698,802.281311 389.508057,803.500000 
	C389.496918,824.666687 389.497711,845.833313 389.520782,867.000000 
	C389.521118,867.333618 389.833038,867.666809 390.124298,868.250000 
	C400.000000,868.250000 410.000000,868.250000 420.250000,868.250000 
	C420.250000,845.666687 420.250000,823.333313 420.250000,800.500000 
	C410.505859,800.500000 401.002930,800.500000 391.500000,800.500000 
"/>
<path fill="none" opacity="1.000000" stroke="#000000" stroke-linecap="round" stroke-linejoin="round" stroke-width="4.000000"
	d="
M459.000000,800.500000 
	C457.073608,800.786804 457.508667,802.281311 457.508026,803.500000 
	C457.496887,824.666687 457.497711,845.833313 457.520782,867.000000 
	C457.521118,867.333618 457.833038,867.666809 458.124268,868.250000 
	C468.000000,868.250000 478.000000,868.250000 488.250000,868.250000 
	C488.250000,845.666687 488.250000,823.333313 488.250000,800.500000 
	C478.505859,800.500000 469.002930,800.500000 459.500000,800.500000 
"/>
<path fill="none" opacity="1.000000" stroke="#000000" stroke-linecap="round" stroke-linejoin="round" stroke-width="4.000000"
	d="
M526.000000,800.500000 
	C524.073608,800.786804 524.508606,802.281311 524.507996,803.500000 
	C524.496826,824.666687 524.497803,845.833313 524.520813,867.000000 
	C524.521179,867.333618 524.833008,867.666809 525.124268,868.250000 
	C535.000000,868.250000 545.000000,868.250000 555.500000,868.250000 
	C555.500000,845.506165 555.500000,823.004944 555.500000,800.501831 
	C545.833313,800.500000 536.166687,800.500000 526.500000,800.500000 
"/>
<path fill="none" opacity="1.000000" stroke="#000000" stroke-linecap="round" stroke-linejoin="round" stroke-width="4.000000"
	d="
M964.000000,800.500000 
	C962.373596,802.774719 962.500854,805.400940 962.500671,808.000000 
	C962.499451,826.333313 962.493530,844.666687 962.504028,863.000000 
	C962.507141,868.471130 962.528870,868.487000 968.000000,868.496277 
	C976.336670,868.510437 984.673340,868.500000 993.250000,868.500000 
	C993.250000,845.666687 993.250000,823.333313 993.250000,800.500000 
	C983.505859,800.500000 974.002930,800.500000 964.500000,800.500000 
"/>
<path fill="none" opacity="1.000000" stroke="#000000" stroke-linecap="round" stroke-linejoin="round" stroke-width="4.000000"
	d="
M1098.000000,800.500000 
	C1096.073608,800.786804 1096.508667,802.281311 1096.507935,803.500000 
	C1096.496826,824.666687 1096.497803,845.833313 1096.520874,867.000000 
	C1096.521240,867.333618 1096.833008,867.666870 1097.249146,868.500000 
	C1106.160645,868.500000 1115.330444,868.482117 1124.500000,868.513550 
	C1126.599243,868.520752 1127.515015,867.599060 1127.512939,865.500000 
	C1127.491699,843.998718 1127.500000,822.497437 1127.500000,800.500000 
	C1117.505859,800.500000 1108.002930,800.500000 1098.500000,800.500000 
"/>
<path fill="none" opacity="1.000000" stroke="#000000" stroke-linecap="round" stroke-linejoin="round" stroke-width="4.000000"
	d="
M1165.000000,800.500000 
	C1163.073608,800.786804 1163.508667,802.281311 1163.507935,803.500000 
	C1163.496826,824.666687 1163.497803,845.833313 1163.520874,867.000000 
	C1163.521240,867.333557 1163.833130,867.666809 1164.124390,868.250000 
	C1174.000000,868.250000 1184.000000,868.250000 1194.250000,868.250000 
	C1194.250000,845.666687 1194.250000,823.333313 1194.250000,800.500000 
	C1184.505859,800.500000 1175.002930,800.500000 1165.500000,800.500000 
"/>
<path fill="none" opacity="1.000000" stroke="#000000" stroke-linecap="round" stroke-linejoin="round" stroke-width="4.000000"
	d="
M1235.000000,800.500000 
	C1233.073608,800.786804 1233.508667,802.281311 1233.507935,803.500000 
	C1233.496826,824.666687 1233.497803,845.833313 1233.520874,867.000000 
	C1233.521240,867.333618 1233.833008,867.666809 1234.124268,868.250000 
	C1244.833374,868.250000 1255.666626,868.250000 1266.750000,868.250000 
	C1266.750000,845.835876 1266.750000,823.667786 1266.750000,800.500000 
	C1256.521118,800.500000 1246.010620,800.500000 1235.500000,800.500000 
"/>
</svg>