<svg version="1.1" id="Layer_1" xmlns="http://www.w3.org/2000/svg" xmlns:xlink="http://www.w3.org/1999/xlink" x="0px" y="0px"
	 width="100%" viewBox="0 0 1536 1024" enable-background="new 0 0 1536 1024" xml:space="preserve">
<path fill="none" opacity="1.000000" stroke="#000000" stroke-linecap="round" stroke-linejoin="round" stroke-width="4.000000"
	d="
M832.500000,833.000000 
	C832.500000,768.166687 832.459534,703.333252 832.563293,638.500122 
	C832.573547,632.095642 832.174438,626.098389 828.596130,620.439209 
	C825.970825,616.287170 827.132690,613.200989 831.517151,610.023682 
	C832.999329,608.949585 832.983887,607.562256 833.019958,606.000488 
	C833.711731,576.094421 821.256897,553.836609 794.483276,540.032471 
	C785.278564,535.286621 775.267639,532.790527 765.011414,533.638123 
	C744.176025,535.360107 727.062439,544.299438 714.450745,561.463806 
	C704.534363,574.960083 700.791382,590.028564 701.442383,606.502258 
	C701.523438,608.552856 702.134827,610.179138 704.010071,610.422546 
	C708.980225,611.067688 708.292358,615.456543 707.237976,617.354431 
	C705.319458,620.807739 704.987793,624.742554 702.788330,628.184265 
	C701.027893,630.938965 701.537415,635.335144 701.560303,638.999634 
	C701.611206,647.165955 701.153748,655.332825 701.911682,663.508179 
	C702.262634,667.293518 701.523926,671.166626 701.521606,675.000000 
	C701.489624,727.666687 701.500000,780.333313 701.500000,833.000000 
"/>
<path fill="none" opacity="1.000000" stroke="#000000" stroke-linecap="round" stroke-linejoin="round" stroke-width="4.000000"
	d="
M966.500000,384.000000 
	C968.160461,372.020752 967.179138,360.004791 967.549500,347.791138 
	C963.671875,347.675903 960.683472,346.244263 959.111877,343.437347 
	C957.413635,340.404053 954.417358,339.915527 951.982422,339.688232 
	C946.609253,339.186646 941.348938,337.986511 935.994385,337.572632 
	C933.908508,337.411377 932.484558,337.025665 931.469543,335.015350 
	C915.227112,302.845062 891.702026,277.344330 860.989319,258.517395 
	C844.846069,248.621490 827.457581,241.785583 809.011169,237.452347 
	C791.352905,233.304245 773.367310,232.240326 755.517761,233.714752 
	C720.004333,236.648270 687.841736,249.199905 659.516602,271.021545 
	C637.475220,288.002197 620.250916,309.093292 606.945312,333.470154 
	C606.445801,334.385406 606.668213,335.166992 606.500000,336.000000 
"/>
<path fill="none" opacity="1.000000" stroke="#000000" stroke-linecap="round" stroke-linejoin="round" stroke-width="4.000000"
	d="
M931.500000,336.000000 
	C927.305481,336.530060 923.255371,336.688873 918.956909,335.684326 
	C914.475281,334.637024 909.623352,334.982544 904.987732,334.776978 
	C897.652832,334.451660 890.354797,333.608124 883.003296,333.389893 
	C811.673645,331.272247 740.332581,333.033813 668.999390,332.599792 
	C656.140930,332.521515 643.316284,334.244080 630.485107,335.322845 
	C623.010559,335.951263 615.509644,336.753754 607.998596,336.943329 
	C602.244202,337.088562 596.652161,338.262726 591.019348,339.126312 
	C589.666992,339.333618 588.324463,339.252869 586.999207,339.495819 
	C583.772888,340.087250 580.527527,340.174713 577.919067,342.923157 
	C575.556885,345.412018 572.860107,347.881531 568.500000,347.681885 
	C568.500000,359.995361 568.500000,371.997681 568.500000,384.000000 
"/>
<path fill="none" opacity="1.000000" stroke="#000000" stroke-linecap="round" stroke-linejoin="round" stroke-width="5.000000"
	d="
M609.500000,538.500000 
	C602.004517,536.621399 594.689270,537.501953 587.502136,540.006042 
	C574.549622,544.518860 565.878235,553.897400 559.568481,565.537109 
	C552.594177,578.402832 549.201355,592.287720 549.467407,607.000610 
	C549.485229,607.985291 550.014343,609.141296 548.608826,610.369507 
	C547.676941,610.445129 546.323059,610.554932 545.669495,610.607971 
	C544.169434,611.500671 544.447449,612.335999 544.523987,612.997192 
	C545.430725,620.825317 549.751038,627.799316 549.578430,636.001648 
	C548.290833,697.162598 549.304443,758.333679 549.024597,819.500122 
	C549.004028,823.999268 549.333374,828.500000 549.500000,833.000000 
"/>
<path fill="none" opacity="1.000000" stroke="#000000" stroke-linecap="round" stroke-linejoin="round" stroke-width="4.000000"
	d="
M985.500000,833.000000 
	C985.500000,770.000000 985.580933,706.999756 985.408325,644.000244 
	C985.383911,635.082153 985.940002,626.446655 988.914368,617.969971 
	C989.987122,614.912781 991.191528,611.215881 986.015015,609.939087 
	C983.712158,609.371094 984.467773,607.084106 984.539856,605.501831 
	C985.019653,594.967163 983.266174,584.845520 979.526001,574.990112 
	C974.395447,561.471008 966.519531,549.860107 953.879639,542.712830 
	C946.154175,538.344421 937.342834,535.573059 927.980225,538.435364 
	C926.959900,538.747314 925.666687,538.166687 924.500000,538.000000 
"/>
<path fill="none" opacity="1.000000" stroke="#000000" stroke-linecap="round" stroke-linejoin="round" stroke-width="4.000000"
	d="
M1328.000000,648.500000 
	C1313.820801,648.300232 1299.654297,649.278015 1285.512817,649.829407 
	C1275.505127,650.219543 1265.496094,650.040222 1255.499756,650.494446 
	C1223.516602,651.947632 1191.503174,652.036865 1159.505859,652.761169 
	C1144.004517,653.112061 1128.493896,653.602539 1113.001343,653.398010 
	C1087.982422,653.067688 1063.009155,654.852966 1038.000000,654.500000 
"/>
<path fill="none" opacity="1.000000" stroke="#000000" stroke-linecap="round" stroke-linejoin="round" stroke-width="4.000000"
	d="
M207.000000,648.000000 
	C213.447754,649.179199 220.080978,649.152100 226.503799,649.249390 
	C260.842255,649.769897 295.150330,651.410217 329.497650,651.742737 
	C344.650696,651.889404 359.857056,651.811707 374.993958,652.613770 
	C401.330353,654.009277 427.673767,652.915405 453.996979,653.613892 
	C468.164581,653.989929 482.323578,654.580688 496.500000,654.500000 
"/>
<path fill="none" opacity="1.000000" stroke="#000000" stroke-linecap="round" stroke-linejoin="round" stroke-width="4.000000"
	d="
M1325.000000,629.500000 
	C1326.043457,632.958252 1325.304688,636.501160 1325.486816,640.000671 
	C1325.695190,644.004883 1326.853760,644.719727 1331.002441,644.564392 
	C1337.493286,644.321350 1344.000000,644.500000 1350.500000,644.500000 
	C1365.666626,644.500000 1380.833374,644.500000 1396.000000,644.500000 
	C1406.132690,644.500000 1407.539429,643.058228 1407.471191,632.500183 
	C1407.461548,631.004395 1407.990479,629.408447 1406.943970,627.737549 
	C1403.539795,626.996887 1400.005493,627.552002 1396.500000,627.500000 
	C1374.501221,627.173584 1352.492432,628.158325 1330.500000,627.000000 
	C1319.279907,630.925598 1307.381470,628.160950 1295.997437,630.487427 
	C1295.517456,630.585510 1294.999756,630.489502 1294.500000,630.501465 
	C1280.666626,630.832886 1266.794800,630.651245 1253.013672,631.683289 
	C1243.989624,632.359009 1234.924683,631.623901 1226.020996,632.677368 
	C1215.651001,633.904358 1205.260010,632.472839 1195.018433,633.658752 
	C1182.988159,635.051636 1170.946899,633.501831 1159.011597,634.623352 
	C1141.334229,636.284485 1123.634033,634.508606 1106.007202,635.614990 
	C1083.333862,637.038208 1060.666260,636.138184 1038.000000,636.500000 
"/>
<path fill="none" opacity="1.000000" stroke="#000000" stroke-linecap="round" stroke-linejoin="round" stroke-width="4.000000"
	d="
M210.000000,629.500000 
	C208.956573,632.958252 209.695175,636.501160 209.513123,640.000671 
	C209.304810,644.004883 208.144669,644.895142 203.996643,644.539124 
	C201.514923,644.326050 198.999542,644.468567 196.500076,644.504944 
	C175.334473,644.812866 154.161102,643.904297 132.996674,644.931458 
	C130.934753,645.031555 129.164825,644.042053 128.433640,641.519226 
	C127.124435,637.002014 127.675072,632.518188 127.430687,627.500000 
	C131.152786,627.500000 134.326889,627.537109 137.499924,627.494080 
	C159.832306,627.191162 182.173935,628.140930 204.500000,627.000000 
	C215.125595,631.696777 226.661209,627.802979 237.504959,630.479919 
	C238.133331,630.635071 238.834747,630.528687 239.499802,630.495850 
	C253.524658,629.802246 267.498444,631.374268 281.492401,631.769165 
	C290.817627,632.032288 300.247589,631.577759 309.476685,632.692871 
	C319.188782,633.866455 328.838959,633.018005 338.499725,633.505554 
	C370.480408,635.119690 402.497711,634.998901 434.494904,635.725037 
	C455.167236,636.194214 475.831543,636.277039 496.500000,636.500000 
"/>
<path fill="none" opacity="1.000000" stroke="#000000" stroke-linecap="round" stroke-linejoin="round" stroke-width="4.000000"
	d="
M668.000000,513.000000 
	C669.900513,518.558411 667.192383,523.683899 666.506470,529.000854 
	C665.897705,533.720642 661.666260,537.199646 662.383911,542.515686 
	C662.958435,546.771423 662.500000,551.166687 662.500000,555.500000 
	C662.500000,622.000000 662.501465,688.500000 662.494995,755.000000 
	C662.494690,757.790955 662.457886,760.294312 664.876526,762.627930 
	C666.822388,764.505310 667.602478,767.505249 667.537415,770.500793 
	C667.494080,772.497559 667.099060,774.561218 668.000000,776.500000 
"/>
<path fill="none" opacity="1.000000" stroke="#000000" stroke-linecap="round" stroke-linejoin="round" stroke-width="4.000000"
	d="
M493.000000,776.500000 
	C491.014893,771.624634 493.671051,767.385254 495.757874,763.643799 
	C497.052429,761.322876 497.490204,759.351562 497.491425,757.000000 
	C497.505005,730.666687 497.500000,704.333313 497.500000,678.000000 
	C497.500000,638.500000 497.380066,598.999207 497.643250,559.500977 
	C497.678345,554.230957 496.444122,549.431458 494.314117,545.091248 
	C491.704895,539.774475 492.905670,534.322021 491.055115,528.500000 
	C504.162109,528.500000 516.331116,528.481995 528.500000,528.511658 
	C531.863770,528.519897 535.638916,527.105469 538.106873,531.666016 
	C536.992432,536.867432 536.500977,542.986450 534.318665,548.427246 
	C531.237427,556.108887 532.611938,563.835388 532.593384,571.500244 
	C532.431763,638.333130 532.500000,705.166687 532.500000,772.000000 
	C532.500000,792.333313 532.500000,812.666687 532.500000,833.000000 
"/>
<path fill="none" opacity="1.000000" stroke="#000000" stroke-linecap="round" stroke-linejoin="round" stroke-width="4.000000"
	d="
M685.500000,518.500000 
	C684.620911,523.026855 684.251160,527.576660 682.687073,532.065186 
	C680.868958,537.282715 679.396545,542.688293 679.408081,548.500183 
	C679.549500,619.499878 679.500000,690.500000 679.500000,761.500000 
"/>
<path fill="none" opacity="1.000000" stroke="#000000" stroke-linecap="round" stroke-linejoin="round" stroke-width="4.000000"
	d="
M849.500000,518.500000 
	C849.497437,523.222778 850.547607,527.601929 852.302734,532.077332 
	C853.797913,535.889771 854.539917,540.180603 854.536804,544.500000 
	C854.485046,615.666687 854.477051,686.833374 854.592163,757.999878 
	C854.596375,760.596802 853.669189,762.536255 852.470337,764.481750 
	C849.003418,770.108215 849.508911,776.338562 849.504333,782.500000 
	C849.491760,799.333313 849.500000,816.166687 849.500000,833.000000 
"/>
<path fill="none" opacity="1.000000" stroke="#000000" stroke-linecap="round" stroke-linejoin="round" stroke-width="5.000000"
	d="
M1042.000000,776.500000 
	C1042.281372,771.113831 1041.832642,765.976440 1037.518921,761.979553 
	C1036.344360,760.891357 1037.023071,759.318848 1037.035522,758.000305 
	C1037.307251,729.167419 1037.231323,700.328613 1037.260742,671.499756 
	C1037.291748,641.005615 1037.260864,610.499512 1037.006104,579.999939 
	C1036.963013,574.833618 1036.975708,569.666565 1037.006470,564.500061 
	C1037.040771,558.719849 1036.266357,552.869385 1039.465332,547.479370 
	C1042.745361,541.952759 1042.741821,535.676636 1042.786499,529.278992 
	C1041.157715,527.594238 1038.458374,528.104248 1036.507324,528.182373 
	C1025.159058,528.636536 1013.838196,528.748108 1002.497314,528.043518 
	C998.635071,527.803528 997.578552,529.484619 997.438782,533.497864 
	C997.215637,539.902649 998.982422,545.738953 1001.421570,551.533020 
	C1002.102295,553.149902 1001.974670,555.166443 1001.978149,557.000061 
	C1002.013855,575.666687 1002.000000,594.333313 1002.000000,613.000000 
	C1002.000000,658.666687 1002.022034,704.333313 1001.977600,750.000000 
	C1001.970459,757.333435 1001.243713,764.686829 1001.591614,771.995667 
	C1002.234924,785.510864 1000.658264,799.021912 1001.626648,812.490906 
	C1002.121704,819.376160 1001.340820,826.166687 1001.500000,833.000000 
"/>
<path fill="none" opacity="1.000000" stroke="#000000" stroke-linecap="round" stroke-linejoin="round" stroke-width="4.000000"
	d="
M858.000000,461.000000 
	C859.058716,462.577454 858.630493,464.396210 858.421631,465.989716 
	C857.888855,470.054718 858.868103,473.345001 863.027527,474.390381 
	C866.058289,475.152069 865.478577,477.093719 865.486023,479.000061 
	C865.518616,487.333282 865.225464,495.677948 865.567566,503.997223 
	C866.023132,515.076416 865.932983,526.311951 871.435364,536.534790 
	C871.922241,537.439392 871.500000,538.833313 871.500000,540.000000 
	C871.500000,612.000000 871.503723,684.000000 871.479065,756.000000 
	C871.478455,757.833374 871.166626,759.666687 871.000000,761.500000 
"/>
<path fill="none" opacity="1.000000" stroke="#000000" stroke-linecap="round" stroke-linejoin="round" stroke-width="4.000000"
	d="
M866.000000,512.000000 
	C874.447388,513.394714 883.008850,512.547058 891.524231,513.166870 
	C901.454956,513.889893 911.484863,515.142090 921.492371,514.397217 
	C924.319214,514.186768 926.655334,514.723450 929.001709,516.000244 
	C928.310913,524.242004 927.127991,532.317261 922.593811,539.558777 
	C921.919128,540.636292 922.500000,542.500000 922.500000,544.000000 
	C922.500000,616.333313 922.500000,688.666687 922.500000,761.000000 
"/>
<path fill="none" opacity="1.000000" stroke="#000000" stroke-linecap="round" stroke-linejoin="round" stroke-width="4.000000"
	d="
M865.000000,511.500000 
	C860.082886,514.144714 854.252625,514.393372 849.459961,517.437012 
	C848.747375,517.889526 847.500000,517.500000 846.500000,517.500000 
	C793.833313,517.500000 741.166687,517.512329 688.500000,517.481445 
	C683.092407,517.478271 678.562195,514.285950 673.570129,512.769226 
	C671.257385,512.066589 669.290405,511.773651 666.997009,511.963593 
	C663.341553,512.266357 659.665955,512.318848 656.000122,512.502625 
	C642.833130,513.162598 629.667603,513.852722 616.499207,514.482910 
	C614.004883,514.602295 611.499817,514.520081 609.000061,514.494202 
	C606.614868,514.469482 605.176208,515.659485 605.556458,517.990784 
	C606.356812,522.898010 606.477722,527.862915 608.868347,532.566895 
	C611.505615,537.756409 612.631836,543.408386 612.615662,549.500305 
	C612.433105,618.333130 612.502502,687.166687 612.486389,756.000000 
	C612.485962,757.838623 612.843384,759.728210 612.000000,761.500000 
"/>
<path fill="none" opacity="1.000000" stroke="#000000" stroke-linecap="round" stroke-linejoin="round" stroke-width="4.000000"
	d="
M863.500000,387.500000 
	C799.500000,387.500000 735.500000,387.500000 671.500000,387.500000 
"/>
<path fill="none" opacity="1.000000" stroke="#000000" stroke-linecap="round" stroke-linejoin="round" stroke-width="4.000000"
	d="
M132.500000,645.500000 
	C132.500000,708.000000 132.500000,770.500000 132.500000,833.000000 
"/>
<path fill="none" opacity="1.000000" stroke="#000000" stroke-linecap="round" stroke-linejoin="round" stroke-width="4.000000"
	d="
M670.500000,458.500000 
	C670.812561,434.834351 669.930298,411.162537 670.871216,387.494873 
	C670.946716,385.594879 670.724548,383.492554 670.484802,381.501831 
	C670.028564,377.711700 670.867310,374.442352 673.818909,372.238220 
	C675.826599,372.330750 677.663330,372.488953 679.500000,372.489349 
	C737.833313,372.502319 796.166687,372.501648 854.500000,372.494324 
	C856.977600,372.494019 859.584106,373.137024 860.604980,369.529724 
	C861.193481,367.450439 863.471375,367.389099 865.500916,367.480011 
	C873.998779,367.860657 882.544678,367.734863 890.988831,368.608032 
	C901.818970,369.727997 912.678406,369.246033 923.500000,369.597931 
	C923.500000,370.333344 923.640930,370.775848 923.479492,370.984131 
	C917.951050,378.118225 919.604004,386.500610 919.550659,394.500336 
	C919.403992,416.499359 919.500000,438.500000 919.500000,460.500000 
"/>
<path fill="none" opacity="1.000000" stroke="#000000" stroke-linecap="round" stroke-linejoin="round" stroke-width="4.000000"
	d="
M206.000000,646.000000 
	C204.908401,708.330872 205.781174,770.666992 205.500000,833.000000 
"/>
<path fill="none" opacity="1.000000" stroke="#000000" stroke-linecap="round" stroke-linejoin="round" stroke-width="4.000000"
	d="
M1329.000000,646.000000 
	C1329.166626,649.000000 1329.476807,651.999939 1329.478516,655.000000 
	C1329.508545,705.166687 1329.525024,755.333313 1329.477417,805.500000 
	C1329.468628,814.750122 1329.166626,824.000000 1329.000000,833.250000 
"/>
<path fill="none" opacity="1.000000" stroke="#000000" stroke-linecap="round" stroke-linejoin="round" stroke-width="4.000000"
	d="
M855.000000,514.500000 
	C853.852539,505.017212 854.737854,495.499146 854.528259,485.999390 
	C854.381714,479.358978 850.756165,476.349243 843.995544,477.473389 
	C842.860291,477.662140 841.666687,477.500000 840.500000,477.500000 
	C791.666687,477.500000 742.833313,477.512512 694.000000,477.477539 
	C689.859985,477.474579 685.708862,475.723175 681.881592,479.375916 
	C680.023071,481.149750 679.440308,482.660187 679.462158,485.000366 
	C679.552490,494.666168 679.500000,504.333344 679.500000,514.000000 
"/>
<path fill="none" opacity="1.000000" stroke="#000000" stroke-linecap="round" stroke-linejoin="round" stroke-width="4.000000"
	d="
M1402.000000,626.500000 
	C1403.279541,622.333313 1401.979736,618.165527 1402.023682,614.000244 
	C1402.109741,605.832703 1402.364624,597.667053 1402.464478,589.499573 
	C1402.478638,588.346924 1403.024292,587.044128 1401.866211,585.804077 
	C1397.272095,585.177246 1392.340332,584.780945 1389.977783,579.509949 
	C1389.283936,577.962280 1387.731812,578.515808 1386.500000,578.513794 
	C1373.000000,578.491821 1359.500000,578.491821 1346.000000,578.513794 
	C1344.768188,578.515808 1343.268433,577.982483 1342.513062,579.506470 
	C1340.138062,584.298279 1335.645630,585.270569 1330.500000,585.806030 
	C1330.500000,599.495911 1330.500000,612.997925 1330.500000,626.500000 
"/>
<path fill="none" opacity="1.000000" stroke="#000000" stroke-linecap="round" stroke-linejoin="round" stroke-width="4.000000"
	d="
M204.500000,626.500000 
	C204.500000,612.997925 204.500000,599.495911 204.500000,585.584900 
	C199.130966,585.985107 195.214661,583.983154 192.559906,579.960449 
	C191.418427,578.230774 189.998154,578.509521 188.499985,578.507996 
	C175.166672,578.494263 161.833252,578.480225 148.500137,578.534058 
	C147.311783,578.538879 145.849884,577.771362 144.981827,579.490845 
	C142.504181,584.398682 137.465866,584.693359 132.500000,585.993896 
	C132.500000,599.495911 132.500000,612.997925 132.500000,626.500000 
"/>
<path fill="none" opacity="1.000000" stroke="#000000" stroke-linecap="round" stroke-linejoin="round" stroke-width="4.000000"
	d="
M1301.500000,681.000000 
	C1301.500000,731.666687 1301.500000,782.333313 1301.500000,833.000000 
"/>
<path fill="none" opacity="1.000000" stroke="#000000" stroke-linecap="round" stroke-linejoin="round" stroke-width="5.000000"
	d="
M228.000000,669.500000 
	C227.709442,673.343384 229.392990,676.643616 231.618607,679.404358 
	C233.007538,681.127258 233.008087,682.708374 232.985626,684.499817 
	C232.847687,695.500183 232.514542,706.500305 232.535370,717.499939 
	C232.567261,734.333496 232.966492,751.166687 232.963425,768.000000 
	C232.960220,785.666687 232.674255,803.333374 232.494217,820.999939 
	C232.453461,825.000366 233.662170,829.000000 232.500000,833.000000 
"/>
<path fill="none" opacity="1.000000" stroke="#000000" stroke-linecap="round" stroke-linejoin="round" stroke-width="4.000000"
	d="
M258.000000,670.000000 
	C257.331451,673.707520 256.559784,677.397461 253.484848,679.981995 
	C251.738998,681.449341 252.539505,683.326477 252.537918,685.000061 
	C252.491165,734.333313 252.500000,783.666687 252.500000,833.000000 
"/>
<path fill="none" opacity="1.000000" stroke="#000000" stroke-linecap="round" stroke-linejoin="round" stroke-width="4.000000"
	d="
M1282.500000,681.500000 
	C1282.500000,732.000000 1282.500000,782.500000 1282.500000,833.000000 
"/>
<path fill="none" opacity="1.000000" stroke="#000000" stroke-linecap="round" stroke-linejoin="round" stroke-width="4.000000"
	d="
M1227.000000,682.500000 
	C1227.843384,684.271790 1227.485596,686.161316 1227.486206,688.000000 
	C1227.503540,736.333313 1227.500000,784.666687 1227.500000,833.000000 
"/>
<path fill="none" opacity="1.000000" stroke="#000000" stroke-linecap="round" stroke-linejoin="round" stroke-width="4.000000"
	d="
M1208.500000,682.500000 
	C1208.500000,732.666687 1208.500000,782.833313 1208.500000,833.000000 
"/>
<path fill="none" opacity="1.000000" stroke="#000000" stroke-linecap="round" stroke-linejoin="round" stroke-width="4.000000"
	d="
M326.500000,682.500000 
	C326.500000,732.666687 326.500000,782.833313 326.500000,833.000000 
"/>
<path fill="none" opacity="1.000000" stroke="#000000" stroke-linecap="round" stroke-linejoin="round" stroke-width="4.000000"
	d="
M307.500000,682.500000 
	C307.500000,732.666687 307.500000,782.833313 307.500000,833.000000 
"/>
<path fill="none" opacity="1.000000" stroke="#000000" stroke-linecap="round" stroke-linejoin="round" stroke-width="4.000000"
	d="
M1135.500000,683.500000 
	C1135.500000,733.333313 1135.500000,783.166687 1135.500000,833.000000 
"/>
<path fill="none" opacity="1.000000" stroke="#000000" stroke-linecap="round" stroke-linejoin="round" stroke-width="4.000000"
	d="
M398.500000,683.500000 
	C398.500000,733.333313 398.500000,783.166687 398.500000,833.000000 
"/>
<path fill="none" opacity="1.000000" stroke="#000000" stroke-linecap="round" stroke-linejoin="round" stroke-width="4.000000"
	d="
M380.500000,683.500000 
	C380.500000,733.333313 380.500000,783.166687 380.500000,833.000000 
"/>
<path fill="none" opacity="1.000000" stroke="#000000" stroke-linecap="round" stroke-linejoin="round" stroke-width="4.000000"
	d="
M1154.500000,683.500000 
	C1154.500000,733.333313 1154.500000,783.166687 1154.500000,833.000000 
"/>
<path fill="none" opacity="1.000000" stroke="#000000" stroke-linecap="round" stroke-linejoin="round" stroke-width="5.000000"
	d="
M1080.500000,684.500000 
	C1080.391357,734.000000 1081.866577,783.500000 1080.500000,833.000000 
"/>
<path fill="none" opacity="1.000000" stroke="#000000" stroke-linecap="round" stroke-linejoin="round" stroke-width="4.000000"
	d="
M472.500000,684.500000 
	C472.500000,734.000000 472.500000,783.500000 472.500000,833.000000 
"/>
<path fill="none" opacity="1.000000" stroke="#000000" stroke-linecap="round" stroke-linejoin="round" stroke-width="4.000000"
	d="
M1061.500000,684.500000 
	C1061.500000,734.000000 1061.500000,783.500000 1061.500000,833.000000 
"/>
<path fill="none" opacity="1.000000" stroke="#000000" stroke-linecap="round" stroke-linejoin="round" stroke-width="4.000000"
	d="
M453.500000,684.500000 
	C453.500000,734.000000 453.500000,783.500000 453.500000,833.000000 
"/>
<path fill="none" opacity="1.000000" stroke="#000000" stroke-linecap="round" stroke-linejoin="round" stroke-width="4.000000"
	d="
M1402.000000,646.000000 
	C1403.058716,647.577454 1402.464111,649.343445 1402.465820,651.000061 
	C1402.509277,693.000000 1402.595947,735.000366 1402.446045,776.999817 
	C1402.396118,790.998352 1403.033325,805.002686 1402.076172,819.005188 
	C1401.759521,823.638855 1402.333374,828.333313 1402.500122,833.000000 
"/>
<path fill="none" opacity="1.000000" stroke="#000000" stroke-linecap="round" stroke-linejoin="round" stroke-width="5.000000"
	d="
M95.500000,834.000000 
	C542.666687,834.000000 989.833313,834.000000 1437.000000,834.000000 
"/>
<path fill="none" opacity="1.000000" stroke="#000000" stroke-linecap="round" stroke-linejoin="round" stroke-width="4.000000"
	d="
M922.500000,375.000000 
	C927.803406,377.872314 933.795288,378.186554 939.511719,379.446899 
	C951.640015,382.120941 963.814941,384.594513 976.006531,386.966400 
	C983.995117,388.520599 991.862427,391.666718 999.989685,391.281799 
	C1007.491699,390.926514 1014.986938,390.494812 1022.499939,390.521454 
	C1025.343262,390.531555 1028.248413,390.074097 1031.504883,391.271179 
	C1026.052002,398.965271 1027.553833,407.608887 1027.523682,416.000092 
	C1027.451050,436.166473 1027.500000,456.333344 1027.500000,476.500000 
"/>
<path fill="none" opacity="1.000000" stroke="#000000" stroke-linecap="round" stroke-linejoin="round" stroke-width="4.000000"
	d="
M532.000000,391.500000 
	C526.931091,389.651764 521.671021,390.685730 516.498840,390.542480 
	C511.985657,390.417511 507.400299,389.820923 502.378204,391.314362 
	C506.504028,395.769135 506.582214,400.786957 506.554504,406.000275 
	C506.429626,429.499634 506.500000,453.000000 506.500000,476.500000 
"/>
<path fill="none" opacity="1.000000" stroke="#000000" stroke-linecap="round" stroke-linejoin="round" stroke-width="4.000000"
	d="
M1001.000000,405.500000 
	C994.359863,405.113983 987.985107,403.229858 981.508484,401.956848 
	C967.813965,399.265137 954.169739,396.318573 940.498718,393.506317 
	C933.839539,392.136475 927.166687,390.833313 920.500000,389.500000 
"/>
<path fill="none" opacity="1.000000" stroke="#000000" stroke-linecap="round" stroke-linejoin="round" stroke-width="4.000000"
	d="
M614.000000,389.500000 
	C606.333313,391.000000 598.653503,392.436157 591.003052,394.014709 
	C579.158203,396.458740 567.336792,399.016663 555.498718,401.493866 
	C548.172302,403.026978 540.833313,404.500000 533.500000,406.000000 
"/>
<path fill="none" opacity="1.000000" stroke="#000000" stroke-linecap="round" stroke-linejoin="round" stroke-width="4.000000"
	d="
M611.500000,513.500000 
	C611.500000,504.333344 611.514954,495.166626 611.488464,486.000031 
	C611.482544,483.958771 610.443176,482.587769 609.317200,480.800232 
	C605.515015,474.763885 598.349487,477.575745 593.824646,473.704987 
	C592.193481,472.309601 588.655640,474.279602 586.027161,474.678772 
	C578.669922,475.796051 571.294617,477.109680 563.958801,478.230530 
	C556.340576,479.394531 548.701782,480.789398 540.996399,481.458771 
	C538.980225,481.633942 536.999207,481.866394 535.381104,479.584320 
	C534.044495,477.699249 531.494812,477.423950 528.999512,477.447052 
	C516.500610,477.562775 503.998016,477.624573 491.501190,477.425995 
	C487.623169,477.364380 486.108246,478.616730 486.451355,482.504303 
	C486.700348,485.325439 486.500000,488.186218 486.500000,491.808868 
	C491.674438,490.394958 494.733917,492.346924 497.154633,496.407837 
	C498.106781,498.005096 498.493011,499.345551 498.494995,501.000000 
	C498.505554,509.833344 498.500000,518.666687 498.500000,527.500000 
"/>
<path fill="none" opacity="1.000000" stroke="#000000" stroke-linecap="round" stroke-linejoin="round" stroke-width="5.000000"
	d="
M1023.500000,389.500000 
	C1025.012573,384.578613 1024.470703,379.515167 1024.474854,374.499969 
	C1024.478149,370.642334 1020.641541,368.855652 1019.367676,365.550995 
	C1018.521606,363.356140 1015.819946,364.561523 1014.000671,364.577881 
	C1011.330444,364.601868 1006.952454,363.252808 1006.323303,365.587128 
	C1005.079956,370.200195 998.449829,371.840759 1000.338318,378.049164 
	C1001.276184,381.132233 1000.645935,384.668488 1001.422668,388.017944 
	C1003.180603,395.598389 1001.817383,403.337769 1001.913513,411.001099 
	C1002.168396,431.331238 1001.981140,451.666718 1002.035034,471.999908 
	C1002.039429,473.656921 1001.441284,475.422546 1002.500000,477.000000 
"/>
<path fill="none" opacity="1.000000" stroke="#000000" stroke-linecap="round" stroke-linejoin="round" stroke-width="5.000000"
	d="
M674.500000,371.500000 
	C674.721802,368.229675 672.839172,366.990875 670.009583,367.548645 
	C659.083374,369.702393 647.971863,367.625275 636.971802,369.316772 
	C630.459106,370.318237 623.666565,369.476135 617.000122,369.515564 
	C615.161316,369.526459 613.272583,369.164978 611.500000,369.979401 
	C611.500000,370.500000 611.295471,371.142456 611.530029,371.479095 
	C616.709961,378.915466 614.924683,387.366943 614.964233,395.500183 
	C615.069580,417.166321 615.000000,438.833344 615.000000,460.500000 
"/>
<path fill="none" opacity="1.000000" stroke="#000000" stroke-linecap="round" stroke-linejoin="round" stroke-width="4.000000"
	d="
M860.500000,372.000000 
	C863.585510,374.832489 864.607239,378.261871 864.580139,382.500519 
	C864.418152,407.832825 864.500000,433.166656 864.500000,458.500000 
"/>
<path fill="none" opacity="1.000000" stroke="#000000" stroke-linecap="round" stroke-linejoin="round" stroke-width="4.000000"
	d="
M511.000000,389.500000 
	C509.940948,384.362122 510.043488,379.062408 510.757874,374.036652 
	C511.212189,370.840637 513.913330,367.795837 516.101135,365.081543 
	C517.289795,363.606873 519.764526,364.271790 521.479065,364.607117 
	C524.193237,365.137909 528.153442,362.241791 529.463440,367.010040 
	C530.314636,370.108307 533.740234,371.484344 533.790466,375.496368 
	C533.834534,379.013763 533.970825,382.649811 533.345398,385.970886 
	C531.709656,394.656219 532.723083,403.340149 532.594360,412.001404 
	C532.297119,431.996979 532.519165,452.000061 532.464966,471.999908 
	C532.460449,473.656921 533.058716,475.422546 532.000000,477.000000 
"/>
<path fill="none" opacity="1.000000" stroke="#000000" stroke-linecap="round" stroke-linejoin="round" stroke-width="4.000000"
	d="
M996.500000,531.500000 
	C989.502747,530.480835 982.471558,529.650391 975.471008,528.717407 
	C969.184631,527.879517 962.825012,527.197266 956.509644,526.421326 
	C949.825745,525.599915 943.065796,525.304199 936.474854,523.597107 
	C934.132019,522.990356 931.500000,523.500000 929.000000,523.500000 
"/>
<path fill="none" opacity="1.000000" stroke="#000000" stroke-linecap="round" stroke-linejoin="round" stroke-width="4.000000"
	d="
M605.000000,523.000061 
	C595.333313,524.166687 585.651794,525.223511 576.004395,526.532593 
	C567.316772,527.711426 558.700378,529.536865 549.984497,530.329468 
	C546.156494,530.677490 542.393372,531.856934 538.500000,531.500000 
"/>
<path fill="none" opacity="1.000000" stroke="#000000" stroke-linecap="round" stroke-linejoin="round" stroke-width="4.000000"
	d="
M1036.500000,527.500000 
	C1036.500000,519.833313 1036.500000,512.166687 1036.500000,504.500000 
	C1036.500000,494.847229 1038.212036,492.746124 1047.750000,490.953003 
	C1047.750000,486.666656 1047.750000,482.333344 1047.750000,477.500000 
	C1041.175415,477.500000 1034.837769,477.500000 1028.500000,477.500000 
	C1019.833313,477.500000 1011.166504,477.477966 1002.500305,477.543182 
	C1001.831238,477.548187 1000.940430,477.994171 1000.534607,478.526428 
	C995.838745,484.684875 989.583740,480.716553 984.539429,480.149475 
	C976.705750,479.268799 968.774841,478.156891 961.005249,476.475647 
	C955.047424,475.186462 948.960022,474.585327 942.963196,473.771027 
	C938.396912,473.151001 933.686523,475.591095 929.516357,478.028015 
	C928.407898,478.675781 927.624390,480.059875 926.475708,480.423370 
	C923.496643,481.366089 923.439331,483.477417 923.464294,486.000366 
	C923.554932,495.166107 923.500000,504.333344 923.500000,513.500000 
"/>
<path fill="none" opacity="1.000000" stroke="#000000" stroke-linecap="round" stroke-linejoin="round" stroke-width="4.000000"
	d="
M600.500000,833.000000 
	C602.796143,814.852844 600.571838,796.664246 601.047668,777.500000 
	C628.491943,777.500000 655.995972,777.500000 683.500000,777.500000 
"/>
<path fill="none" opacity="1.000000" stroke="#000000" stroke-linecap="round" stroke-linejoin="round" stroke-width="4.000000"
	d="
M851.000000,777.000000 
	C857.804565,778.345337 864.679688,777.387207 871.500000,777.387451 
	C890.498596,777.388123 909.507324,778.129517 928.502563,777.044556 
	C929.998474,776.959167 931.530518,777.505188 933.500000,777.833557 
	C933.500000,796.330322 933.500000,814.665161 933.500000,833.000000 
"/>
<path fill="none" opacity="1.000000" stroke="#000000" stroke-linecap="round" stroke-linejoin="round" stroke-width="4.000000"
	d="
M531.500000,777.500000 
	C517.081421,777.500000 502.662811,777.500000 488.138947,777.500000 
	C486.337585,796.310669 489.262360,814.687317 487.500000,833.000000 
"/>
<path fill="none" opacity="1.000000" stroke="#000000" stroke-linecap="round" stroke-linejoin="round" stroke-width="4.000000"
	d="
M966.500000,356.999969 
	C953.833313,354.499969 941.244934,351.390259 928.467834,349.750488 
	C921.817017,348.896912 914.833313,348.121124 908.000000,349.500000 
"/>
<path fill="none" opacity="1.000000" stroke="#000000" stroke-linecap="round" stroke-linejoin="round" stroke-width="4.000000"
	d="
M1003.000000,777.500000 
	C1017.335266,777.500000 1031.670532,777.500000 1046.500000,777.500000 
	C1046.500000,796.330322 1046.500000,814.665161 1046.500000,833.000000 
"/>
<path fill="none" opacity="1.000000" stroke="#000000" stroke-linecap="round" stroke-linejoin="round" stroke-width="4.000000"
	d="
M627.500000,349.000000 
	C620.906189,347.504211 614.478210,349.471222 608.005676,350.062134 
	C595.022827,351.247406 582.591064,355.859924 569.500000,356.500000 
"/>
<path fill="none" opacity="1.000000" stroke="#000000" stroke-linecap="round" stroke-linejoin="round" stroke-width="4.000000"
	d="
M666.500000,763.000000 
	C671.000000,762.666687 675.497559,762.201172 680.002197,762.118713 
	C680.838074,762.103455 682.055237,762.698669 682.661560,764.443848 
	C684.727051,770.388245 684.481750,776.433105 684.491089,782.500000 
	C684.516907,799.333313 684.500000,816.166687 684.500000,833.000000 
"/>
<path fill="none" opacity="1.000000" stroke="#000000" stroke-linecap="round" stroke-linejoin="round" stroke-width="4.000000"
	d="
M688.500000,476.000000 
	C688.500000,472.666656 688.500000,469.333344 688.500000,465.778198 
	C682.937500,462.989563 677.571289,458.953094 671.002502,459.106567 
	C657.827393,459.414459 644.641113,460.027313 631.510315,461.123413 
	C624.478821,461.710419 617.497437,461.199188 610.496887,461.378967 
	C605.576233,461.505371 600.927429,463.409363 595.827820,462.252838 
	C594.750732,466.617462 598.160889,470.446716 595.500000,474.000000 
"/>
<path fill="none" opacity="1.000000" stroke="#000000" stroke-linecap="round" stroke-linejoin="round" stroke-width="4.000000"
	d="
M846.500000,476.000000 
	C846.500000,472.500000 845.067993,467.547485 846.817810,465.822357 
	C849.843933,462.838898 854.395020,460.767548 859.004028,460.024933 
	C866.489136,458.818939 874.012512,459.221283 881.484619,460.126984 
	C882.450745,460.244110 883.518494,460.487915 884.499207,460.464905 
	C898.850464,460.128479 913.142944,462.086609 927.500977,461.525513 
	C931.226013,461.379944 935.028748,461.066833 938.469421,463.286102 
	C938.849731,466.491272 937.883911,470.045227 939.000000,473.500000 
"/>
<path fill="none" opacity="1.000000" stroke="#000000" stroke-linecap="round" stroke-linejoin="round" stroke-width="4.000000"
	d="
M677.000000,461.000000 
	C675.884460,462.394562 676.574097,464.007141 676.539673,465.500916 
	C676.458191,469.032104 677.280762,472.674927 672.029724,473.658783 
	C669.964905,474.045654 669.368042,476.496216 669.414978,479.001587 
	C669.614990,489.664490 669.500000,500.333344 669.500000,511.000000 
"/>
<path fill="none" opacity="1.000000" stroke="#000000" stroke-linecap="round" stroke-linejoin="round" stroke-width="4.000000"
	d="
M514.500000,491.500000 
	C518.967041,492.557343 523.502258,491.907013 528.000427,491.942535 
	C531.266296,491.968323 532.627380,493.017609 532.565613,496.501160 
	C532.382385,506.831268 532.500000,517.166687 532.500000,527.500000 
"/>
<path fill="none" opacity="1.000000" stroke="#000000" stroke-linecap="round" stroke-linejoin="round" stroke-width="4.000000"
	d="
M929.000000,776.500000 
	C927.991760,772.704712 928.515503,768.756042 926.763306,764.880981 
	C925.551636,762.201416 923.600403,761.305054 922.035950,761.658936 
	C913.535706,763.582031 904.997620,762.132385 896.497559,762.430908 
	C887.672546,762.740784 878.828064,762.500000 869.492920,762.500000 
	C866.983765,766.416199 865.465759,771.142334 867.000000,776.500000 
"/>
<path fill="none" opacity="1.000000" stroke="#000000" stroke-linecap="round" stroke-linejoin="round" stroke-width="4.000000"
	d="
M663.500000,761.500000 
	C661.639282,762.668945 659.561951,762.541687 657.500000,762.499451 
	C642.501587,762.192383 627.492126,763.089478 612.497681,762.033264 
	C609.466248,761.819702 606.824829,765.747192 606.497314,770.499817 
	C606.359375,772.501953 606.900940,774.561218 606.000000,776.500000 
"/>
<path fill="none" opacity="1.000000" stroke="#000000" stroke-linecap="round" stroke-linejoin="round" stroke-width="4.000000"
	d="
M906.500000,368.500000 
	C906.464233,364.058594 909.271179,360.125366 908.583618,355.487610 
	C908.134949,352.461243 908.784851,349.151581 904.502747,348.482452 
	C904.314636,348.453033 904.080383,348.195953 904.012512,347.995758 
	C901.838623,341.590576 896.434082,343.837280 891.999512,343.506836 
	C891.336487,343.457458 890.639099,343.378082 890.004883,343.521484 
	C887.516052,344.084259 884.865723,342.390900 882.422241,344.925018 
	C877.999573,349.511688 874.788269,354.533051 876.715149,360.935242 
	C877.356689,363.066895 877.088623,365.013000 877.500000,367.000000 
"/>
<path fill="none" opacity="1.000000" stroke="#000000" stroke-linecap="round" stroke-linejoin="round" stroke-width="4.000000"
	d="
M657.000000,367.500000 
	C657.166626,364.333344 656.845825,361.044800 657.600708,358.025177 
	C659.209839,351.588226 654.606812,348.174347 651.465820,344.025879 
	C650.553101,342.820374 633.550293,343.401306 632.500732,344.500671 
	C626.792847,350.479340 623.906738,356.974426 628.432739,365.037750 
	C628.930725,365.924896 628.500000,367.333344 628.500000,368.500000 
"/>
<path fill="none" opacity="1.000000" stroke="#000000" stroke-linecap="round" stroke-linejoin="round" stroke-width="4.000000"
	d="
M1328.000000,667.500000 
	C1311.166626,668.000000 1294.329834,668.916077 1277.501953,668.774414 
	C1271.610107,668.724731 1265.842407,669.484436 1260.000610,669.550232 
	C1240.994995,669.764465 1221.967285,668.730164 1202.981201,670.830566 
	C1199.985962,671.161987 1196.666992,670.494385 1193.500244,670.521851 
	C1159.166504,670.820190 1124.833740,671.221436 1090.499878,671.477173 
	C1073.000854,671.607483 1055.500000,671.500000 1038.000000,671.500000 
"/>
<path fill="none" opacity="1.000000" stroke="#000000" stroke-linecap="round" stroke-linejoin="round" stroke-width="4.000000"
	d="
M496.000000,672.000000 
	C467.166656,671.833313 438.319672,672.156677 409.504120,671.352783 
	C384.165283,670.645813 358.799988,671.385315 333.511505,670.244751 
	C312.818207,669.311462 292.125732,670.675293 271.510406,669.339539 
	C251.508118,668.043396 231.456955,669.508301 211.494675,667.554382 
	C210.046906,667.412598 208.394562,666.884460 207.000000,668.000000 
"/>
<path fill="none" opacity="1.000000" stroke="#000000" stroke-linecap="round" stroke-linejoin="round" stroke-width="4.000000"
	d="
M612.500000,375.000000 
	C606.782898,377.631592 600.492615,377.986359 594.481262,379.421600 
	C584.215820,381.872528 573.868652,384.024200 563.489929,385.945740 
	C553.333008,387.826233 543.465149,391.321838 533.000000,391.500000 
"/>
<path fill="none" opacity="1.000000" stroke="#000000" stroke-linecap="round" stroke-linejoin="round" stroke-width="5.000000"
	d="
M1002.000000,492.500000 
	C1002.000000,504.166656 1002.000000,515.833313 1002.000000,527.500000 
"/>
<path fill="none" opacity="1.000000" stroke="#000000" stroke-linecap="round" stroke-linejoin="round" stroke-width="4.000000"
	d="
M252.000000,681.000000 
	C245.833328,680.946899 239.666672,678.765564 233.500000,681.000000 
"/>
<path fill="none" opacity="1.000000" stroke="#000000" stroke-linecap="round" stroke-linejoin="round" stroke-width="4.000000"
	d="
M1159.000000,672.000000 
	C1160.534668,676.709534 1156.437012,679.371033 1155.480713,682.500000 
	C1149.668579,682.500000 1144.333618,682.450684 1139.000122,682.513672 
	C1133.546387,682.578064 1130.834351,680.077209 1130.505371,674.499695 
	C1130.466187,673.835327 1130.500000,673.166687 1130.500000,672.500000 
"/>
<path fill="none" opacity="1.000000" stroke="#000000" stroke-linecap="round" stroke-linejoin="round" stroke-width="4.000000"
	d="
M331.500000,671.000000 
	C331.500000,676.046509 331.500000,676.046509 327.188965,681.750000 
	C320.333344,681.750000 313.666656,681.750000 306.697662,681.750000 
	C304.228088,678.664368 301.712524,675.228455 302.500000,670.500000 
"/>
<path fill="none" opacity="1.000000" stroke="#000000" stroke-linecap="round" stroke-linejoin="round" stroke-width="4.000000"
	d="
M1306.500000,669.500000 
	C1307.141113,673.184937 1305.330688,676.103699 1303.484619,678.990112 
	C1302.931274,679.855469 1302.224854,680.504700 1301.000488,680.525818 
	C1294.999390,680.629211 1288.990723,680.653137 1282.995361,680.777710 
	C1279.311157,680.854248 1278.764771,676.398865 1277.530396,673.487122 
	C1277.075684,672.414551 1278.074097,671.037048 1277.000000,670.000000 
"/>
<path fill="none" opacity="1.000000" stroke="#000000" stroke-linecap="round" stroke-linejoin="round" stroke-width="4.000000"
	d="
M448.500000,672.500000 
	C447.893585,676.609253 450.428375,679.436584 452.458282,682.527405 
	C453.473206,684.072693 454.771973,683.475464 456.000122,683.483521 
	C461.670166,683.520874 467.340668,683.500000 473.519745,683.500000 
	C475.967072,680.924438 477.350037,677.128784 478.000000,673.000000 
"/>
<path fill="none" opacity="1.000000" stroke="#000000" stroke-linecap="round" stroke-linejoin="round" stroke-width="4.000000"
	d="
M1057.000000,673.000000 
	C1056.971069,680.225220 1059.942017,683.507935 1066.500000,683.500488 
	C1069.000000,683.497620 1071.500000,683.500000 1074.000000,683.500000 
	C1083.300415,683.500000 1084.751465,682.230347 1086.000000,673.000000 
"/>
<path fill="none" opacity="1.000000" stroke="#000000" stroke-linecap="round" stroke-linejoin="round" stroke-width="4.000000"
	d="
M1232.500000,670.500000 
	C1233.165527,673.916382 1231.601929,676.789429 1229.918335,679.448303 
	C1228.938965,680.995178 1227.724609,682.173218 1224.964966,681.707581 
	C1220.427490,680.941895 1215.584839,680.965149 1211.024780,681.661926 
	C1207.067505,682.266602 1205.447388,680.872131 1204.484009,677.504578 
	C1203.904663,675.479553 1203.166626,673.500000 1202.500000,671.500000 
"/>
<path fill="none" opacity="1.000000" stroke="#000000" stroke-linecap="round" stroke-linejoin="round" stroke-width="4.000000"
	d="
M404.499969,672.500000 
	C404.166626,673.500000 403.844788,674.503967 403.498169,675.499390 
	C401.046997,682.537720 401.045410,682.532166 394.000000,682.502319 
	C390.833405,682.488892 387.666412,682.475525 384.500061,682.505371 
	C378.848358,682.558655 376.220490,680.254272 375.516998,674.497925 
	C375.396606,673.512634 375.500000,672.500000 375.500000,671.500000 
"/>
<path fill="none" opacity="1.000000" stroke="#000000" stroke-linecap="round" stroke-linejoin="round" stroke-width="4.000000"
	d="
M855.000000,762.000000 
	C859.418762,763.429871 864.081116,761.571289 868.500000,763.000000 
"/>
</svg>