<svg version="1.1" id="Layer_1" xmlns="http://www.w3.org/2000/svg" xmlns:xlink="http://www.w3.org/1999/xlink" x="0px" y="0px"
	 width="100%" viewBox="0 0 887 1774" enable-background="new 0 0 887 1774" xml:space="preserve">
<path fill="none" opacity="1.000000" stroke="#000000" stroke-linecap="round" stroke-linejoin="round" stroke-width="6.000000"
	d="
M489.000000,443.500000 
	C489.500000,443.500000 490.028320,443.392548 490.495850,443.515778 
	C500.757721,446.221069 511.012878,448.951965 521.500000,451.739227 
	C521.500000,453.666687 521.500000,455.583344 521.500000,457.500000 
	C521.500000,542.666687 521.500977,627.833313 521.495361,713.000000 
	C521.495178,715.824280 520.803955,718.357544 519.795532,721.108337 
	C518.556702,724.487488 519.327881,728.675903 519.532837,732.498230 
	C520.105042,743.169983 521.122070,753.825012 521.427917,764.502075 
	C521.821716,778.251526 523.923706,791.825989 525.102722,805.491150 
	C526.874573,826.025208 529.380188,846.495178 531.486145,867.001404 
	C533.385315,885.494690 535.108521,904.005981 537.014587,922.498474 
	C539.454529,946.171387 542.022705,969.830933 544.492920,993.500732 
	C546.527588,1012.997131 548.467957,1032.503296 550.508057,1051.999146 
	C553.141846,1077.169189 555.822144,1102.334595 558.503601,1127.499634 
	C560.652588,1147.668091 562.865051,1167.830078 564.990479,1188.000977 
	C566.869202,1205.829590 568.618591,1223.671753 570.515808,1241.498291 
	C571.935730,1254.840210 573.563599,1268.159912 574.984924,1281.501587 
	C577.043823,1300.828735 578.908325,1320.176636 581.021790,1339.497559 
	C584.103821,1367.673462 587.416138,1395.824341 590.474792,1424.002686 
	C593.096558,1448.156128 595.384705,1472.346069 598.032104,1496.496460 
	C600.719666,1521.012451 603.801941,1545.485718 606.400269,1570.010620 
	C607.013184,1575.795044 608.140198,1581.611084 607.500000,1587.500000 
"/>
<path fill="none" opacity="1.000000" stroke="#000000" stroke-linecap="round" stroke-linejoin="round" stroke-width="5.000000"
	d="
M412.500000,444.000000 
	C403.839630,444.637360 395.839783,448.027008 387.506897,450.028717 
	C380.972534,451.598450 381.000000,451.712799 381.000000,458.000000 
	C381.000000,527.333313 381.031219,596.666687 380.977234,666.000000 
	C380.964386,682.500122 380.665741,699.000000 380.501740,715.500000 
	C380.488495,716.833191 379.999512,718.457275 380.578461,719.454468 
	C385.599731,728.103210 381.248962,737.176941 381.813263,746.011902 
	C382.202484,752.105225 381.313782,758.303894 381.300964,764.499573 
	C381.284393,772.501282 379.815063,780.498169 379.003632,788.500366 
	C376.992645,808.332581 375.025970,828.169373 372.992554,847.999268 
	C371.026825,867.169434 369.009460,886.334290 366.997162,905.499695 
	C365.177124,922.834412 363.380066,940.171814 361.487549,957.498657 
	C359.375214,976.837891 357.074188,996.156921 355.026611,1015.502808 
	C353.069885,1033.989746 351.427582,1052.509888 349.477325,1070.997559 
	C346.733643,1097.007080 343.724884,1122.988770 341.035614,1149.003662 
	C339.021790,1168.484985 337.375671,1188.004150 335.487701,1207.498779 
	C333.711639,1225.837769 331.877716,1244.171143 329.988647,1262.498779 
	C327.703339,1284.670410 325.323212,1306.832275 323.002747,1329.000244 
	C320.490631,1352.999023 318.005341,1377.000610 315.498413,1400.999878 
	C313.339539,1421.667236 311.159515,1442.332642 309.002197,1463.000244 
	C307.158234,1480.665771 305.364563,1498.336670 303.492310,1515.999146 
	C300.967896,1539.814087 297.618805,1563.547729 296.500000,1587.500000 
"/>
<path fill="none" opacity="1.000000" stroke="#000000" stroke-linecap="round" stroke-linejoin="round" stroke-width="5.000000"
	d="
M518.000000,720.500000 
	C513.894775,715.438354 515.400452,709.144836 514.681458,703.476990 
	C512.512085,686.374084 511.255066,669.157532 509.476471,652.002441 
	C507.489166,632.834534 505.100342,613.712708 503.422119,594.506775 
	C501.962921,577.807434 499.762878,561.174072 498.018921,544.498047 
	C496.102539,526.173401 494.351624,507.831482 492.493774,489.500641 
	C491.192780,476.664001 489.809021,463.835815 488.506073,450.999390 
	C486.814606,434.335236 485.230164,417.659973 483.479645,401.002136 
	C482.113800,388.005219 481.230072,374.967926 479.613373,361.985870 
	C478.085602,349.718262 477.736084,337.308350 476.434113,325.006989 
	C475.112244,312.517731 473.977844,300.020416 472.935028,287.505402 
	C471.350098,268.484711 469.332825,249.500046 467.500183,230.499985 
	C466.165924,216.666748 464.742798,202.841248 463.531311,188.997269 
	C462.701202,179.511566 462.226837,169.995285 461.483276,160.501312 
	C460.725739,150.828705 459.837280,141.166336 458.998505,131.500137 
	C458.506714,125.832748 457.764709,120.175156 457.559937,114.497841 
	C457.308441,107.525246 456.328705,106.405212 449.501770,107.019524 
	C448.585266,107.101990 447.692535,107.448624 446.458221,107.754997 
	C444.821442,126.817436 443.293579,146.171326 441.460510,165.496262 
	C439.814667,182.847366 437.725372,200.156113 436.028381,217.502777 
	C434.072937,237.490829 432.396515,257.506073 430.478851,277.497986 
	C429.087036,292.008362 427.469727,306.496948 426.007599,321.000763 
	C424.142914,339.497620 422.300568,357.996826 420.509949,376.500977 
	C418.962097,392.496338 417.537964,408.503662 415.990143,424.499054 
	C414.199493,443.003174 412.353058,461.501984 410.494629,479.999451 
	C408.518524,499.668518 406.679962,519.353699 404.452881,538.994629 
	C401.866486,561.804382 399.572266,584.639221 397.471680,607.497375 
	C396.122620,622.177979 394.477783,636.831116 393.005554,651.500549 
	C391.149048,669.998230 389.485657,688.517151 387.402924,706.989075 
	C386.813751,712.214294 387.923279,717.955811 384.000000,722.500000 
"/>
<path fill="none" opacity="1.000000" stroke="#000000" stroke-linecap="round" stroke-linejoin="round" stroke-width="6.000000"
	d="
M218.500000,1588.500000 
	C373.500000,1588.500000 528.500000,1588.500000 683.500000,1588.500000 
"/>
</svg>